<?xml version="1.0" standalone="no"?><!DOCTYPE svg PUBLIC "-//W3C//DTD SVG 1.1//EN" "http://www.w3.org/Graphics/SVG/1.1/DTD/svg11.dtd"><svg t="1743758611734" class="icon" viewBox="0 0 1024 1024" version="1.1" xmlns="http://www.w3.org/2000/svg" p-id="17863" xmlns:xlink="http://www.w3.org/1999/xlink" width="200" height="200"><path d="M177.938768 602.208094L182.833548 1019.495601l662.176657-7.747566-4.86475-415.36563" fill="#7E2216" p-id="17864"></path><path d="M368.799155 662.939402l268.894593-3.144071 4.144047 354.322018-268.894593 3.14407z" fill="#36553B" p-id="17865"></path><path d="M276.164692 664.056493l56.178862-0.657643 3.79871 324.686077-56.184868 0.654639zM678.083191 659.323871l56.181865-0.654639 3.795706 324.686076-56.181865 0.654639z" fill="#FA9698" p-id="17866"></path><path d="M390.894733 680.248305l226.916598-2.651589 3.936845 336.754862-226.916598 2.654592z" fill="#2E2D2A" p-id="17867"></path><path d="M209.04915 533.921408l-142.03871 66.75519 889.618768-10.420176-155.581935-63.271789" fill="#D7553C" p-id="17868"></path><path d="M64.548035 603.589443c-1.501466 34.653842 49.548387 35.584751 48.046921-0.570557h1.861818c-1.531496 34.623812 49.518358 35.584751 48.046921-0.570558h1.861818c-1.531496 34.653842 49.518358 35.61478 48.046921-0.540527h1.861818c-1.531496 34.623812 49.518358 35.584751 48.046921-0.570558h1.831789c-1.531496 34.653842 49.548387 35.61478 48.046921-0.540527h1.831789c-1.531496 34.623812 49.548387 35.584751 48.04692-0.570558h1.231203c-1.531496 34.623812 49.548387 35.584751 48.046921-0.570557h1.861818c-1.531496 34.623812 49.518358 35.61478 48.046921-0.570557h1.861818c-1.531496 34.623812 49.518358 35.584751 48.046921-0.570557h1.831788c-1.531496 34.653842 49.548387 35.61478 48.046921-0.540528h1.831789c-1.531496 34.623812 49.548387 35.584751 48.046921-0.570557h1.621583c-1.531496 34.653842 49.548387 35.61478 48.046921-0.540528h1.861818c-1.531496 34.623812 49.518358 35.61478 48.046921-0.570557h1.861818c-1.531496 34.623812 49.518358 35.584751 48.046921-0.570557h1.831789c-1.531496 34.653842 49.548387 35.61478 48.046921-0.570558h1.831789c-1.531496 34.623812 49.548387 35.584751 48.046921-0.570557h1.861818c-1.531496 34.653842 49.548387 35.61478 48.046921-0.540528h1.861818c-1.531496 34.623812 49.518358 35.584751 48.046921-0.570557" fill="#EEE4DA" p-id="17869"></path><path d="M207.127273 369.751085l1.921877 164.170323 591.998123-6.936775-1.921877-164.170322" fill="#7E2216" p-id="17870"></path><path d="M235.74522 300.293255l-118.765982 70.508856 785.417008-9.188973-129.636598-59.938534" fill="#D7553C" p-id="17871"></path><path d="M536.368798 385.906862c22.25173 7.056891 37.506628 21.35085 37.686803 37.987097 0.300293 24.02346-30.900176 43.872845-69.668035 44.323284s-70.448798-18.648211-70.719062-42.671671c-0.210205-17.266862 15.795425-32.341584 39.038124-39.668739" fill="#FF7310" p-id="17872"></path><path d="M348.83566 388.099003c22.25173 7.056891 37.506628 21.35085 37.716833 37.987097 0.270264 24.02346-30.930205 43.872845-69.698065 44.323284S246.43566 451.761173 246.195425 427.737713c-0.210205-17.236833 15.825455-32.341584 39.218299-39.668739" fill="#FF7310" p-id="17873"></path><path d="M729.667566 383.624633c22.25173 7.056891 37.506628 21.35085 37.716833 38.017127 0.270264 24.02346-30.930205 43.872845-69.698065 44.323284S627.177478 447.43695 626.907214 423.41349c-0.210205-17.236833 15.795425-32.311554 39.18827-39.63871" fill="#FF7310" p-id="17874"></path><path d="M119.591789 373.324575a24.233666 24.233666 0 0 0 48.437302-0.600587 24.203636 24.203636 0 1 0 48.407273-0.540528 24.203636 24.203636 0 0 0 48.407272-0.570557 24.203636 24.203636 0 0 0 48.407273-0.570557 24.203636 24.203636 0 0 0 48.407273-0.570557 24.233666 24.233666 0 0 0 48.437302-0.570557 24.203636 24.203636 0 1 0 48.407273-0.540528 24.203636 24.203636 0 1 0 48.407272-0.570557 24.203636 24.203636 0 1 0 48.407273-0.570558 24.203636 24.203636 0 1 0 48.407273-0.540527 24.203636 24.203636 0 0 0 48.407273-0.570558 24.233666 24.233666 0 0 0 48.437302-0.570557 24.203636 24.203636 0 1 0 48.407272-0.570557 24.203636 24.203636 0 1 0 48.407273-0.570557 24.203636 24.203636 0 1 0 48.407273-0.570557 24.203636 24.203636 0 0 0 48.407272 0.780762" fill="#EEE4DA" p-id="17875"></path><path d="M267.576305 131.648563l1.471437 124.351437 464.553666-5.435308-1.471437-124.351437" fill="#7E2216" p-id="17876"></path><path d="M456.160469 134.561408l1.081056 94.38217 91.048915-1.051027-1.111085-94.38217" fill="#F3A71E" p-id="17877"></path><path d="M375.321525 139.095836c8.708504 6.005865 14.113783 14.444106 14.203871 23.723167 0.240235 18.888446-21.561056 34.473666-48.647507 34.803988S291.629795 182.878592 291.419589 163.960117c0-9.759531 5.645513-18.648211 15.014663-24.984399" fill="#FF7310" p-id="17878"></path><path d="M693.091848 135.372199c8.678475 6.005865 14.113783 14.444106 14.20387 23.723168 0.240235 18.918475-21.561056 34.473666-48.647507 34.803988S609.550264 179.154956 609.189912 160.236481c0-9.759531 5.645513-18.618182 15.014663-24.984399" fill="#FF7310" p-id="17879"></path><path d="M343.850792 7.927742S383.729736 39.63871 486.099707 38.437537s150.146628-33.933138 150.146627-33.933138 68.55695 107.444927 203.118358 105.853372l-666.95132 7.807625-14.624281 0.180176S339.286334 104.532082 343.850792 7.927742z" fill="#D7553C" p-id="17880"></path><path d="M163.764927 123.33044c-1.561525 28.49783 45.043988 28.798123 38.377478-4.204106H204.15437c-7.807625 28.768094 44.263226 36.755894 37.596715-0.45044h1.891848c-7.807625 28.798123 44.263226 36.785924 37.596715-0.42041h1.891848c-7.927742 28.678006 44.143109 36.665806 37.476598-0.540528h1.891847c-7.807625 28.768094 44.263226 36.755894 37.596716-0.45044h1.891847c-7.807625 28.798123 44.263226 36.755894 37.596716-0.42041h1.891847c-7.807625 28.768094 44.263226 36.755894 37.596716-0.45044h1.891847c-7.807625 28.798123 44.263226 36.785924 37.596716-0.420411h1.861818c-7.807625 28.768094 44.263226 36.755894 37.596716-0.45044h1.891847c-7.807625 28.768094 44.263226 36.755894 37.596716-0.45044h1.891847c-7.807625 28.798123 44.263226 36.755894 37.596716-0.42041h1.891847C591.112258 143.239883 643.183109 151.227683 636.576657 114.111437h1.891847c-7.777595 28.798123 44.293255 36.785924 37.596716-0.420411h1.891847c-7.777595 28.768094 44.293255 36.755894 37.596716-0.450439h1.891847c-7.777595 28.768094 44.293255 36.755894 37.596716-0.45044h1.921877c-7.807625 28.798123 44.263226 36.755894 37.566686-0.420411h1.921877c-7.807625 28.768094 44.263226 36.755894 37.566686-0.45044h0.210205" fill="#EEE4DA" p-id="17881"></path><path d="M235.74522 300.293255l-0.510499-43.872844 536.924341-6.306159 0.600586 49.368211-537.014428 0.810792z" fill="#7E2216" p-id="17882"></path></svg>