<?xml version="1.0" standalone="no"?><!DOCTYPE svg PUBLIC "-//W3C//DTD SVG 1.1//EN" "http://www.w3.org/Graphics/SVG/1.1/DTD/svg11.dtd"><svg t="1743758235543" class="icon" viewBox="0 0 1024 1024" version="1.1" xmlns="http://www.w3.org/2000/svg" p-id="2847" xmlns:xlink="http://www.w3.org/1999/xlink" width="200" height="200"><path d="M311.689555 212.910676H219.059069v80.738295h32.309768v-40.37276h60.320718v40.37276h32.316993V212.910676zM759.814185 212.910676H667.169249v80.738295h32.309768v-40.37276h60.335168v40.37276h32.302542V212.910676z" fill="#00A29A" p-id="2848"></path><path d="M183.50532 269.647842h644.165157v38.183615H183.50532zM240.191911 339.252561h67.863518v45.545791h-67.863518zM240.191911 628.848362c12.621906-5.404228 37.193802-11.458697 67.863518 2.897186V403.96602h-67.863518v224.882342zM333.270341 339.252561h67.863517v45.545791h-67.863517zM333.270341 647.589761c5.96777 4.739537 12.065589 10.281037 18.279006 16.776226 0 0 18.719725-17.91776 49.577286-26.854966V403.958795h-67.863517v243.630966zM426.334321 339.252561h67.863517v45.545791h-67.863517zM426.334321 632.923207c19.846809-1.510005 42.829227 1.676178 67.863517 13.756216V403.98047h-67.863517v228.942737zM519.398301 339.252561h67.863517v45.545791H519.398301zM520.669884 654.547343s1.235458-1.11986 3.569102-2.889961a70.016538 70.016538 0 0 1 11.617645-7.737872c0.021675-0.007225 0.050574-0.007225 0.072249-0.0289 11.783817-6.870883 29.701578-14.688228 51.340163-15.605791V403.96602H519.398301v251.867356c0.440719-0.411819 0.910338-0.809189 1.358282-1.235459a0.303446 0.303446 0 0 0-0.086699-0.050574zM612.469506 339.252561h67.863517v45.545791h-67.863517zM612.469506 630.49564c18.726949 4.08207 39.144526 14.074112 60.082296 33.870347 0 0 2.572066-3.525753 7.773996-8.315864v-252.076878h-67.863517v226.522395zM705.540711 339.252561h67.870742v45.545791h-67.870742zM705.540711 639.396721c16.371631-7.49945 38.906104-12.390709 67.870742-6.892558V403.96602h-67.870742v235.430701zM503.293991 672.009934a4.595039 4.595039 0 0 0-0.173397 1.018712" fill="#00A29A" p-id="2849"></path><path d="M827.627127 710.005701l0.050575-0.050574-2.232496-2.326419-39.007253-42.496882a21.075043 21.075043 0 0 0-2.427567-2.644314l-0.426269-0.469619-0.065025 0.043349a24.492422 24.492422 0 0 0-16.176558-6.191742c-4.768436 0-9.190077 1.423306-12.983152 3.78585l-0.014449-0.050575-58.420569 34.274942-21.775858 12.152287-46.217707-32.996133h-0.130048a24.427398 24.427398 0 0 0-18.582452-8.655435 24.275675 24.275675 0 0 0-11.494821 2.99111l-0.057799-0.101148-65.934468 35.560974-5.440352 2.796037a23.372562 23.372562 0 0 0-2.290295-0.476843l-54.201224-32.078571-0.144498-0.043349a24.434623 24.434623 0 0 0-18.560777-8.61931c-2.564841 0-4.985183 0.498518-7.311602 1.221009l-0.209523-0.0578-0.484068 0.281772c-2.774363 0.953687-5.288629 2.384218-7.528349 4.219343l-61.657325 34.679536-70.32721-37.937967 0.01445 0.079474a24.304575 24.304575 0 0 0-10.613383-2.507042 24.275675 24.275675 0 0 0-14.225834 4.609489l-0.0289-0.01445-59.648802 30.98761v0.072249a25.041515 25.041515 0 0 0-16.162109 23.452036c0 13.857365 11.083002 25.106539 24.766969 25.10654 4.595039 0 8.828832-1.343832 12.520757-3.547428l0.01445 0.115598 52.785144-30.57579 70.247735 37.887393h0.122824a24.420173 24.420173 0 0 0 10.555583 2.478141c3.793074 0 7.354952-0.946462 10.548359-2.478141h0.130048l66.52691-37.887393 54.504671 35.560974 0.050574-0.021675a24.29735 24.29735 0 0 0 14.485932 4.826235c4.746761 0 9.168402-1.430531 12.939802-3.778624l0.021674 0.043349 76.128807-36.630259 38.010216 31.030959c2.189146 2.723789 4.912934 4.956284 8.019643 6.545763l0.375695 0.317896 0.137273-0.0289c3.215082 1.553354 6.784184 2.492592 10.598933 2.492592 6.271216 0 11.928315-2.427568 16.292157-6.321791l0.144498-0.01445 84.560269-42.561905 22.158779 32.714362c1.394406 3.735275 3.641351 6.993706 6.516862 9.616346l0.151723 0.223972 0.065024-0.050574a24.355149 24.355149 0 0 0 16.357182 6.386815c13.683967 0 24.781418-11.234725 24.781418-25.099315a25.323286 25.323286 0 0 0-9.804194-19.839584z" fill="#00A29A" p-id="2850"></path><path d="M827.627127 795.107837l0.050575-0.057799-2.232496-2.319194-39.007253-42.496881a22.194903 22.194903 0 0 0-2.427567-2.65154l-0.426269-0.462394-0.065025 0.04335a24.492422 24.492422 0 0 0-16.176558-6.191742c-4.768436 0-9.190077 1.423306-12.983152 3.778624l-0.014449-0.043349-58.420569 34.282166-21.775858 12.145062-46.217707-32.996133h-0.130048a24.427398 24.427398 0 0 0-18.582452-8.655434 24.275675 24.275675 0 0 0-11.494821 2.99111l-0.057799-0.101149-65.934468 35.560974-5.440352 2.803263a19.810685 19.810685 0 0 0-2.290295-0.484069l-54.201224-32.078571-0.144498-0.050574a24.456298 24.456298 0 0 0-18.560777-8.61931c-2.564841 0-4.985183 0.498518-7.311602 1.228234l-0.209523-0.057799-0.484068 0.274546a24.32625 24.32625 0 0 0-7.528349 4.233793l-61.657325 34.672312-70.32721-37.930743 0.01445 0.065024a24.506872 24.506872 0 0 0-10.613383-2.499816c-5.310304 0-10.201564 1.726752-14.225834 4.602263l-0.0289-0.007225-59.648802 30.987611v0.079474a25.027065 25.027065 0 0 0-16.162109 23.452036c0 13.85014 11.083002 25.099314 24.766969 25.099314 4.595039 0 8.828832-1.351057 12.520757-3.547428l0.01445 0.115599 52.785144-30.575791 70.247735 37.880168h0.122824c3.207857 1.538904 6.76251 2.485367 10.555583 2.485367s7.354952-0.946462 10.548359-2.485367h0.130048l66.52691-37.880168 54.504671 35.568199 0.050574-0.021675a24.384049 24.384049 0 0 0 14.485932 4.819011c4.746761 0 9.168402-1.430531 12.939802-3.785849l0.021674 0.050574 76.128807-36.637485 38.010216 31.04541c2.189146 2.709339 4.912934 4.949059 8.019643 6.538537l0.375695 0.310671 0.137273-0.0289c3.215082 1.560579 6.784184 2.507041 10.598933 2.507042 6.271216 0 11.928315-2.442017 16.292157-6.329015l0.144498-0.01445 84.560269-42.569131 22.158779 32.714363c1.394406 3.735275 3.641351 6.993706 6.516862 9.623571l0.151723 0.223972 0.065024-0.04335a24.355149 24.355149 0 0 0 16.357182 6.386815c13.683967 0 24.781418-11.249174 24.781418-25.106539a25.301611 25.301611 0 0 0-9.804194-19.839585z" fill="#00A29A" p-id="2851"></path></svg>