<?xml version="1.0" standalone="no"?><!DOCTYPE svg PUBLIC "-//W3C//DTD SVG 1.1//EN" "http://www.w3.org/Graphics/SVG/1.1/DTD/svg11.dtd"><svg t="1743774482347" class="icon" viewBox="0 0 1024 1024" version="1.1" xmlns="http://www.w3.org/2000/svg" p-id="4148" xmlns:xlink="http://www.w3.org/1999/xlink" width="200" height="200"><path d="M90.01285 681.5c0-24.8 0.2-49.7-0.1-74.5-0.1-10.2 2.6-13.8 14.3-12.8 21.8 1.9 43.9 1 65.8 1 42.5 0.1 85 0.1 127.5-0.1 5.3 0 13.8 2.7 10.9-8.5-3.3-9.9 0.4-20.5-3.2-30.3-1.4-7.7-1.2-15.4-0.8-23.1 0.5-17.9-1.2-35.8-0.5-53.7 0.3-7-0.2-14.4 7.1-18.9 4-1.7 8.2-2.3 12.6-2.3 51-0.2 101.9-0.3 152.9 0.1 2.9 0 5.7 0.4 8.4 1.2 8.6 3.1 9.5 10.4 8 17.6-3.2 15.2-1.2 30.2 0.1 45.3 1.3 14.5 11.9 6.7 18.4 8 6.8 1.4 11-1.9 9.9-9.6-2-14.7-1.4-29.4-1.3-44.2 0.1-6.7 0.4-13.6 8.1-16.8 8-2.4 16.1-1.7 24.2-1.7 42.1-0.1 84.2-0.1 126.3 0 7.2 0 14.4-0.6 21.3 2 1.7 0.8 3.2 2 4.3 3.6 4.5 14.3 1.7 29 2.2 43.6 0.5 16.5 0.1 33 0.2 49.5 0.6 8.9 0.6 17.8 0.3 26.7 4 32.4 5.6 64.8-1.4 97.1-3 7-9.3 7.7-15.6 7.8-23 0.4-46 0.2-68.9 0.1-11.9 0-17.5-5.6-17.6-17.5-0.1-12.4-0.7-24.9 0-37.3 2.7-46.2-33.2-80.1-74-87.2-39.3-6.8-76.5-1.1-104.7 32.1-12.3 14.5-19.4 30.6-19.8 49.6-0.3 14.8 0.1 29.7-0.2 44.5-0.2 9.7-4.5 15.5-14.6 15.6-24.9 0.3-49.8 1.5-74.6-0.6-18.4-1.6-20.2-4.1-23.1-22.6-0.7-4.3-1.6-8.4-3.5-12.4-9.8-20.1-33.3-30.3-61.6-26.9-21.1 2.6-38.3 18.2-42.9 38.9-4.6 20.6-4.6 20.6-25 20.7-17.7 0.1-35.4 0.1-53.1-0.1-5.7 0-11.8 1-16.3-3.9z m0 0" fill="#F5F3F3" p-id="4149"></path><path d="M629.91285 279.6c9.2 29.4 28.1 38.5 59.4 37.9 44.9-1 88-4.5 127.5-27.6 13.4-7.9 14.6-9.5 15.7-25.9 10.9 10.3 9.8 21 5.1 32.3-3 2.6-5.1 6.1-8.1 8.8-8.7 6-16.3 13.2-25 19.3-44.1 30.8-91.3 44.9-146.5 43.3-115.7-3.3-231.5-1.3-347.3-0.8-23.8 0.1-45.1-6.4-65.6-17.5-15.3-8.2-29.6-18.4-46.1-24.1-0.8 1-1.7 1.8-2.7 2.6-9.1-12.7-18.7-25.2-27.3-38.3-7.1-10.9-6.3-13.5 5.1-25.8-2.4 12.6 2.9 19.3 12.4 24.5 31.2 17.2 63.7 29.3 100 28.2 20.6-0.6 41.2-1.2 61.7-0.5 11.7 0.4 18.7-3.5 23.2-14.2 3.3-7.8 8.1-15 12.3-22.4 4.2-4.9 10.1-5.3 15.8-5 65.9 3.7 131.7 0.6 197.6 1.6 11.1 0.2 22.8-6.2 32.8 3.6z m0 0" fill="#382014" p-id="4150"></path><path d="M90.01285 681.5c25.9 0.1 51.7 0 77.6 0.3 7.2 0.1 12.2-0.9 11.5-9.9-1.5-20.9 17.7-44.5 40.7-49.1 24.5-4.8 47.8-2.7 66 17.4 6.2 6.9 12.3 14.9 10.9 24.1-2.3 15.7 7.1 19.5 18.6 19.9 25.8 0.9 51.7 0.3 77.6 0.5 6.7 0 7.7-4 7.7-9.4-0.1-13.4 0.9-26.9-0.2-40.2-3.7-46.7 37.5-87.9 83.5-93.9 32.4-4.2 63.9-0.6 90.8 21.6 20.3 16.7 32.8 37.1 33.2 63.8 0.2 15.8 0 31.6 0 47.4 0 4.7-0.7 10.7 6.5 10.4 29.5-1 59.1 3.2 88.5-2.2 8.5-5.2 13.2-12 15.2-22.3 2.8-14.4 13.4-23.8 26-30.8 38-21 83.3-3.9 96.4 37.2 2.8 8.6 7.3 11.2 15.5 11.1 16.7-0.2 33.5-0.2 50.2 0 6.2 0.1 12.6-0.6 17.6 4.2 3.6 0.9-2.7-4.5 0 0-5.4 5.3-1.6 7.3-8.1 7.3-19.6 0.2-39.2 0.2-58.8 0-10-0.1-14.9 3.5-14.8 14.2 0.3 38.8-2.7 33.7 32 34.2 10 0.1 20.1-0.5 30.1 0.3 5.2 0.4 12-1 13.7 6.8l0.2 0.6c-6 5-13.3 4-20.4 4.4-21.2 1.1-42.6-2.7-63.6 3.8-6.5 2-12.2-0.6-14.3-8-1.8-19-0.5-38-0.7-57.1-0.4-28.2-10-40.4-37.7-47.1-2.2-0.3-4.4-0.9-6.7-0.8-28.8 7.1-39 19.9-39.4 49.1-0.3 18.5 0.9 37.1-0.7 55.6-1.8 7.4-6.8 9.3-13.6 7.6-4.4-1.1-8.8-3.3-13 0.6-4.6 7.8-11.7 10.7-20.5 10.7-29.6 0.2-59.2 0.2-88.8 0-11-0.1-18.7-3.7-18.4-16.4-0.2-33.9 0.1-67.9-0.1-101.8-0.2-46.1-26.3-75.1-72.5-80.5-2.4-0.1-4.8-0.1-7.2 0-45.3 4.7-72.4 34.6-72.7 80.2-0.2 33.9 0.2 67.8-0.2 101.8 0.5 11.6-5.7 16.5-16.7 16.7-28.7 0.4-57.4 0.3-86.1 0.1-8.4-0.1-14.8-3.4-18.8-10.8-2.2-2.1-5.1-3.5-8.1-3.9-12.4 0.3-16.8-6.4-16.7-18 0.1-15.7 0.4-31.5-0.1-47.2-1-27.4-13.8-42-40.6-46.9h-4.8c-24.9 4.7-34.8 14.4-39.2 38.9-3.2 18-1.4 36.2-1.6 54.4-0.1 12.2-4.6 19.2-17.5 19.1-16.2 0.4-32.3 0.2-48.5 0.1-5.2 0-10.5-0.1-15.1-3.3-1.5-1.3-1.8-2.9-0.9-4.7 13-7.5 27.2-3.4 40.8-3.9 20.4-0.8 20.7-0.5 20.8-21.1 0.1-27.4 0.1-27.4-27.5-27.4-16.8 0-33.5 0.1-50.3-0.1-6.1-0.1-12.6 0.6-17.6-4.4 2.7-4.7 7.3-2.2 10.9-3.2z m0 0" fill="#BEBCAF" p-id="4151"></path><path d="M923.91285 681.6c-24.9 0.1-49.8 0.2-74.7 0.1-5 0-11.5 1.6-11.5-6.7 0-39.3-52-63.5-89.5-43.7-16.7 8.8-28.2 21.2-28.6 41.2-0.2 12.7-10.8 7.2-16.8 9.8-0.4-17.5 3.4-34.8 2.8-52.4-0.5-15.6-1.3-31.1-2.9-46.7 4.6-2 9.4-1.3 14.2-1.3 53.6 0.3 107.2-0.4 160.8 0.4 13.7 0.2 21.8-3.7 24.4-17.4 1.2-1.7 2.7-2.1 4.6-1 0.7 8.9-4.5 20.9 12.7 20.7 6.3-0.1 4.5 7.3 4.5 11.7 0.1 28.4 0 56.8 0 85.3z m0 0" fill="#F3EFE6" p-id="4152"></path><path d="M310.61285 462.5c-3.4 24-0.3 48.2-2.2 72.3-1.7 0.9-3.2 0.5-4.3-1.1-1.9-2.9-2.5-6.2-2.7-9.6-0.4-7.9-5.1-10.6-12.3-10.7-11.5-0.2-22.9-0.5-34.4 0-45.8 1.7-91.6-1.5-137.3-2.9-38.5-1.2-75.7-9.6-108.2-32.3C-2.98715 455.9-3.08715 447.9 9.01285 434.4c-2.7 20.7 11.6 28.4 26.5 33.9 29.3 10.9 59.8 8.2 90.1 4.7 2.8-0.3 5.6-1.2 8.4-1.4 17.9-0.7 33.3-6.1 42.8-22.6 2.5-1.7 5.3-2.2 8.2-2.2 39.1-0.2 78.3-0.3 117.4 0.4 4.4 0.1 8.6 0.7 11.9 3.9 3 5.3 0.3 8.5-3.7 11.4z m0 0" fill="#382014" p-id="4153"></path><path d="M906.71285 563.8l-1.3-0.2-1.3 0.2c-58.4-2.6-116.8-0.5-175.2-1.3-8-0.1-16.4 1.4-23.6-4-2.8-31.4-0.6-62.9-1.2-94.4 5-3.6 6.3-3.4 7.5 2.4 2.3 10.5 1.4 21.3 1 31.9-0.1 2.9 0.3 5.7 0.1 8.6-0.8 9.1 2.7 13 12.4 12.4 18.6-1.1 37.3 0.5 55.9-0.6 54.3-3 108.9-2 162.4-14.7 14-3.4 25.8-9.6 37-17.8 2.7-2 5.4-4 8.4-5.4 3-1.4 6.4-3.6 9.2-0.6 2.9 3.1 0.4 6.2-1.6 8.9s-4.4 5.1-6.4 7.7c-12.8 13.4-25.4 27-38.5 40-12.8 12.6-27.9 21.4-44.8 26.9z m0 0" fill="#1F0F1F" p-id="4154"></path><path d="M708.31285 500.6c-0.3-12.4-0.5-24.9-0.8-37.3 0-0.2-0.7-0.5-1.1-0.5-0.4 0-0.8 0.4-1.3 0.6-1.2 0.9-2 0.6-2.5-0.8l0.2-0.1c-3.2-3.3-6.9-6.5-0.9-10.6 4-1.9 8.3-2.1 12.6-2.2 43.8-0.5 87.6 0.7 131.4-1 10 18 27.3 21 45.7 23.4 28.9 3.8 57.8 6.4 86.4-0.8 18.4-4.6 35.1-12.3 38.2-35.8 10.1 13.5 9.5 24.9-0.9 35.9-35.8 8.8-71.7 17-107.4 26.1-7.9 2-15.8 4.4-24 4.3-52.2-1-104.2 5.1-156.4 3.1-6.6-0.4-13.5 0.6-19.2-4.3z m0 0" fill="#382014" p-id="4155"></path><path d="M9.21285 478.2c2.3-3.9 5.1-1.4 7.2-0.1 36.3 21.4 75.9 27.3 117.5 28.6 53.9 1.8 107.9 2 161.8 2.1 7.4 0 10.5 2.8 10 10.1-0.3 5.2-0.2 10.5-0.2 15.8-5.3 7-13.2 7.1-20.8 7.3-57.4 1.1-114.6 0.3-171.4-9.3-22.2-3.8-43.6-10.7-64.8-18.2-9.9-3.5-16.1-11.7-24.9-16.6-5-6.4-11.7-11.6-14.4-19.7z m0 0" fill="#464140" p-id="4156"></path><path d="M708.31285 500.6c7.2-0.1 14.4-0.5 21.5-0.2 51.7 1.9 103.2-4.4 154.8-3 9.2 0.3 17.7-3.5 26.5-5.6 31-7.5 62-15.1 93-22.7 4.1-1 8.3-2.7 11.1 2.3-8.1 8.9-14 20-25.5 25.6l7.5-15.2c-6.1-1.2-8.4 3.5-11 6-22.7 21.9-53.1 20-80.6 27.3-31.5 8.2-63.6 3.2-95.1 6.8-31.7 3.6-63.7-1-95.3 3.6-5.1 0.7-7.1-1.4-7.1-6.2 0.1-6.3 0.2-12.5 0.2-18.7z m0 0" fill="#464141" p-id="4157"></path><path d="M23.71285 497.8c10.6 0.8 17.3 9.5 26.7 12.9 39.2 14.3 79.6 21.1 121.1 24.4 31.4 2.5 62.8 2.5 94.3 2.6 13.3 0 26.7 0.5 39.8-3 0.9 0.1 1.9 0.1 2.8 0.2 0.1 7.6 0.3 15.3 0.4 22.9-4.4 4.8-10.3 4.8-15.9 4.8-57.3 0.3-114.5 0.1-171.8 0.2-3.9 0-7.6-0.8-11.2-1.9-32.7-3.2-53-25.7-73.7-47.4-4.7-4.9-8.4-10.5-12.5-15.7z m0 0" fill="#1D0D1A" p-id="4158"></path><path d="M109.81285 560.8c4.6-5.2 10.7-2.9 16.1-2.9 60.9-0.2 121.9-0.1 182.8-0.1 2.9 9.4 2.8 19.5-0.3 28.9-57.8-0.1-115.7-0.3-173.5-0.4-25.8-0.2-25.8-0.1-25.1-25.5z m0 0" fill="#6F4E2A" p-id="4159"></path><path d="M924.01285 746.8c-18.6-5.7-43.6-4.2-62.4-4.8-27.6-1-23.8 3.5-23.9-24.7-0.2-32.9 0-32.9 32.7-32.9 21.4 0 32-2.9 53.4-2.9 0.9 4.7-3.2 17.2 0.2 21.3-0.5 18.1 6.7 28.7 0 44zM79.21285 684.5c29.2 0 58.4 0.2 87.6-0.2 9.2-0.1 13.4 2.5 12.4 12.2-1.5 14.6 6.2 33-3.4 42.8-8.4 8.6-26.4 1.9-40.2 2.6-7.6 0.4-38 1.8-45.7 1.8-10.8 3.2-10.8-10-11.5-24.7-1.8-6.9 4.8-16.1-5.7-20.6 6.6-2.7 5.7-8.7 6.5-13.9z m0 0" fill="#B0B3A0" p-id="4160"></path><path d="M629.91285 279.6l-246.1-0.2c-6.8-12.4-3.4-22.9 1.3-36 5.9-16.7 18.8-10.2 28.5-14.8-8.9 10-1.7 24.7-11.6 35-3.4 3.6 4 8.5 9.4 9.1 6.2 0.6 12.4 0.2 18.6 0.2h162.2c5.7 0 11.5 0.8 16.1-4.1 1.5-1.7 5-3.8 3-5.4-11.5-8.8-3.7-23.9-12.4-33 2.7-3.2 3.7-0.4 5.2 0.1 27.2 7.9 32.8 18.6 25.8 49.1z m0 0" fill="#A39897" p-id="4161"></path><path d="M832.71285 299c2.2 0 1.1-5.9 5-2.8-6.2 22.1-21.3 38.9-35 56.2-24.5 31.1-52.1 59.5-80.1 87.4-8.1 11.1-19.1 6.7-29.5 5.4-1.5-0.7-2.8-1.7-3.7-3.1-3.1-6.8-2.9-13.8-0.7-20.7 18.5-14.1 38-26.8 56.9-40.5 32.5-23.6 62-50.4 87.1-81.9z m-636.3 28.8c0.1-0.9 0.1-1.8 0-2.7 7.6-1.9 11 4.3 15 8.4 19.1 19.3 39 37.6 60.1 54.7 15.4 12.5 34.3 18.2 50.3 29.4 3.1 7.3 2.6 14.8 0.9 22.4-0.6 1.5-1.5 2.8-2.7 3.7-1.4 0.6-3 0.9-4.6 0.8-9-1.9-18.8 1.8-27.2-3.8-36.7-32.7-64.1-72.9-91.8-112.9z m0 0" fill="#1E0E1D" p-id="4162"></path><path d="M690.71285 443.4c10.6-1.2 21.8 2.9 31.8-3.4 3.2 5.6 8.6 2.9 12.9 3 22.5 0.3 45 0.2 67.6 0.1 19 0 17 0.1 15.3-17.2-0.9-9.9-3.2-18.5-7.6-27.4 5.3-0.5 7.2 3.3 9.7 5.7 4.5 4.2 2.8 0.1 4.8-2 5.1-5.1 8.5 0 11.4 4.6 8.1 12.9 12.3 26.7 9.3 42-3.8 6.5-10.2 5.5-16.3 5.5H699.31285c-7.5 0.2-9.2-4.5-8.6-10.9z m-373.4-0.9l2.9 0.4c1.3 5.4 1.5 10.2-5.6 11.4-3.6-5-8.8-2.5-13.2-2.5-36.4-0.2-72.8-0.1-109.3-0.1-5.2 0-10.6 1-15.2-2.6-7.9-17 0.5-31.1 7.9-45.5 2.4-4.7 5.8-5.6 10.3-5 3.4 5.3-7.3 5.4-2.7 11.3 6-3.9 9.5-11.7 17-14.4-2.2 11.9-7.5 21.4-19.1 27.1 6 4 7.7-2.6 11.4-1.6-3.6 19.4-3.2 19.4 18.8 19.9 22.4 0.5 45-2.1 67.3 1.7 9.7-1.8 19.7-1.8 29.5-0.1z m0 0" fill="#8A8483" p-id="4163"></path><path d="M317.31285 442.5h-29.5c0-0.6 0.2-1.2 0.3-1.8 9.7 1 19.6-1.8 29.2 1.8z m0 0" fill="#957059" p-id="4164"></path><path d="M583.91285 745.6c-1.4 10.7 2.6 14.4 14 13.9 29.1-1.1 58.3-1.4 87.5-0.5 11.2 0.3 18.4-1.4 20.2-13.3 6.9 12.2 6.3 24.4-0.1 36.6l0.3 8.4c-3 5.7-8.5 3.4-12.8 3.4-123.9 0.1-247.8 0.1-371.7 0-4.4 0-9.8 2.3-12.8-3.4l0.3-8.4c-6.4-12.2-7.1-24.4-0.1-36.6 1.8 11.9 8.9 13.8 20.1 13.4 27.2-0.9 54.6-0.6 81.8 0.6 11.4 0.5 15.3-3.2 13.9-13.9 4.4-5.7 10.9-5.3 17-5.4 13.8-0.2 27.7-1.1 41.4 0.8 10.3 1.4 13.8-2.8 13.8-12.4v-62.9c0-28.1-0.1-56.2 0.1-84.4 0-7.1-0.8-14.5 5-20.2h5c6.2 6.1 5 14.1 5 21.6 0.2 46.8 0 93.6 0.1 140.4 0.1 19.3 1.8 20.3 20.6 18.5 17.1-1.9 34.6-3.2 51.4 3.8z m0 0" fill="#262A24" p-id="4165"></path><path d="M308.41285 745.5l0.1 36.6-143.7 0.2c-6.8 1.7-76.2 6.3-80.7 3.3-9.9-6.7 0 0-1.2-21.8-4.7-4.2-1.3-10.5 1.4-17 22.1 0.2 73.2-3.1 95.3-0.8 5.5 0.1 10.4 1.2 13.9-6.2 3.5-7.3 12.6-5.1 19.5-5.3 18.5-0.7 19-1 19.1-19.7 0.1-21-0.1-41.9 0.1-62.9 0.1-6.6-0.7-13.5 4.7-18.8 0.8-0.3 1.6-0.3 2.3 0 5.4 5.3 4.7 12.2 4.7 18.8 0.2 21.9-0.1 43.8 0.1 65.7 0.2 15.2 1.5 16.1 16.2 16.9 9.4 0.6 20-2.6 25.6 10 1.7 3.9 8.7 1.8 13.3 0.9l9.3 0.1z m0 0" fill="#0D0F09" p-id="4166"></path><path d="M705.41285 782.2l0.1-36.6c4.8-0.3 9.2-2.1 13.9 2.9 3.5 3.7 11.1 6.6 12.4-3.8 7.8-6.7 17.3-4.3 26.1-4.4 10.3-0.2 14.6-4.7 14.6-14.8 0.1-22.9-0.2-45.9 0.1-68.8 0.1-7-1.2-14.5 4.9-20.2 0.9 0.3 1.8 0.5 2.7 0.8 4.8 5.6 4.3 12.4 4.3 19 0.2 22.3-0.1 44.6 0.1 67 0.2 15.5 1.6 16.6 17.5 17 7 0.2 14.3-1.6 20.9 2.3-1 10.3 8.7 10.7 11.7 7.7 7.7-8 16.4-4.8 24.6-5 19.6-0.5 45 1.7 64.6 1.7-1.1 14.5 8.5 7.1 8.2 35l-226.7 0.2z m0 0" fill="#0D0E08" p-id="4167"></path><path d="M314.51285 454.4l5.6-11.4v-0.2c1.5-1 3.1-1.4 4.8-1.4 20.4 0.7 40.7 0.5 61.1 0.1 3.5-0.4 7.1-0.4 10.7 0.1 74.2 0.3 148.3 0.1 222.5 0 1.8-0.2 3.5-0.2 5.3-0.2 20.5 0.8 41 0.4 61.5 0.1 1.8 0 3.3 0.5 4.7 1.6l0.1 0.3c2.6 3.9 4.3 8.5 8.7 11 1.2 2.7 2.3 5.4 3.5 8.2l-176.1 0.4c-13.2 1.7-26.6 1.6-39.8 0l-176.4-0.3c1.2-2.9 2.5-5.6 3.8-8.3z m0 0" fill="#DCD2C5" p-id="4168"></path><path d="M704.91285 557.8c61.8 0.1 123.5 0.1 185.3 0.3 5 0 12.2-3.3 13.8 5.7 0.7 22.3 0.7 22.3-21.2 22.3H717.71285c-5.1 0-10.7 1.6-14.9-2.9v-24.7c0.2-1.6 1-1.9 2.1-0.7z m0 0" fill="#6F4D2A" p-id="4169"></path><path d="M487.01285 462.8c13.3-4.4 26.6-4.4 39.8 0-4 18.4-2.6 37-0.8 55.5 1.1 11.6 0 17.7-14.2 17-21.4-1.1-20.8-0.3-23.9-21.4-2.6-17 3.8-34.1-0.9-51.1z m0 0" fill="#A49AA6" p-id="4170"></path><path d="M704.91285 557.8c-0.7 0.2-1.5 0.4-2.2 0.7v-95.9c0.9 0.1 1.7 0.4 2.5 0.8l-0.3 94.4z m0 0" fill="#F3EFE6" p-id="4171"></path><path d="M320.31285 417c-25.6-5.1-44.6-21.7-64.7-36.8-21.7-16.4-37.9-38.5-59.3-55l-3.9-11.9c25.8 16.6 50.9 31.9 78.2 43.1 9.7 4 20.1 6.1 30.6 6.1 128.3-0.2 256.7-1 385 0.5 33.5 0.4 61.4-10.4 89.2-26.1 20-11.3 38.2-25.1 57.2-37.8-8.5 19.3-23.2 33.8-38.5 47.4-28.5 25.3-59.3 47.8-91 69-3.7 2.4-7.1 4.9-11.7 4.7-14.2 2-28.6 1.3-42.8 1.3-75.4 0-150.9 1.3-226.3-0.3-29-0.6-58.1 2.3-87.1-0.5-5.1-0.6-10.5 0.3-14.9-3.7z m0 0" fill="#464140" p-id="4172"></path><path d="M583.91285 745.6c-20.4 2-40.9-2-61.3 1.5-12.1 2.1-16.5-2.1-16.3-15.3 0.7-56.9 0.3-113.7 0.2-170.6 42-0.1 77.4 34 77.6 75.5 0.3 36.2-0.1 72.5-0.2 108.9z m-82.3-184.5c0 57.3-0.3 114.6 0.1 171.9 0.1 11.3-2.5 14.7-14.5 13.7-20.9-1.7-41.9-0.9-62.9-1.1-0.1-37.2-1-74.5-0.2-111.7 0.8-39.7 36.6-72.6 77.5-72.8z m0 0" fill="#AA3B23" p-id="4173"></path><path d="M777.61285 636.4c-0.2 31.4-0.8 62.8-0.5 94.2 0.1 10.5-3.2 14.8-13.9 14.1-10.4-0.7-20.9-0.1-31.4-0.1-0.1-19.2-0.3-38.3-0.3-57.5 0-31.1 14.8-47.2 46.1-50.7z m0 0" fill="#863225" p-id="4174"></path><path d="M299.31285 745.4c-6.8 3-12 4.4-17.9-3.7-4.5-6.1-14.2-2.1-21.6-2.4-23-0.7-20.1 3.1-20.3-20.7-0.2-28.5-0.1-57.1-0.2-85.6 27.6-0.9 45.4 22.5 45.4 44.8 0 18.1 0.6 36.2-0.2 54.3-0.6 11.8 4.2 15.3 14.8 13.3z m0 0" fill="#883225" p-id="4175"></path><path d="M236.91285 633.1c-0.1 31.4-0.4 62.8 0 94.2 0.1 9.3-2.6 13.1-12 12-4.7-0.6-9.5-0.3-14.3 0-7 0.4-14.9-2.9-19.4 6.9-1.3 3-7.7 2.5-11.7-0.1 9.2 1 12-3.2 12.1-12.2 0.2-20.9-1.9-41.9 1.4-62.7 3.7-23.4 19.7-37.2 43.9-38.1z m0 0" fill="#883325" p-id="4176"></path><path d="M823.21285 742.5c-11.6 4-23.6 1.4-35.3 2.1-9.1 0.5-7.8-6.3-7.8-11.8 0-31.8 0.2-63.7 0.2-95.5 27 2.5 42.9 18.7 43.3 45.2 0.3 19.9-0.2 40-0.4 60z m0 0" fill="#873225" p-id="4177"></path><path d="M320.31285 417c15.6 0 31.5 1.9 46.8-0.3 25.4-3.6 50.4 1.7 75.6 0.6 26.8-1.2 53.6-0.3 80.4-0.3h159.4c3.4 0 6.8-0.2 9 3.1-0.3 7.7-0.6 15.3-0.9 23l-1.1 0.2-1.1-0.1c-21 2.9-42.3-0.4-63.3 1.7h-3.5c-49.7-1.5-99.4-0.5-149.2-0.6-25.8-0.1-51.6-0.9-77.4 0.6h-9.1c-21.1-2.2-42.4 1.2-63.5-1.8l-1.2 0.1-1.1-0.5c0.1-8.6 0.2-17.1 0.2-25.7z m0 0" fill="#957059" p-id="4178"></path><path d="M395.11285 444.9c3.3-2.8 7.2-2 11-2h204.6c3.8 0 7.7-0.6 11 2H395.11285z m-72.7-1.8c21.2 0.2 42.5-2.5 63.5 1.8-21.2 0.5-42.4 2.2-63.5-1.8z m302.7 1.8c21-4.4 42.2-1.1 63.3-1.7-21 4.5-42.2 1.9-63.3 1.7z m0 0" fill="#8A8483" p-id="4179"></path><path d="M515.91285 498.9c0 6.7-0.3 13.4 0.1 20.1 0.3 6.8-1 10.5-9.2 10.6-8.3 0-10.9-2.8-10.6-10.9 0.5-14.3 0.4-28.7 0-43.1-0.2-7.7 2.8-9.7 10.1-9.8 7.6-0.1 10.2 2.7 9.8 10-0.6 7.8-0.2 15.5-0.2 23.1z m0 0" fill="#383F63" p-id="4180"></path></svg>