<?xml version="1.0" standalone="no"?><!DOCTYPE svg PUBLIC "-//W3C//DTD SVG 1.1//EN" "http://www.w3.org/Graphics/SVG/1.1/DTD/svg11.dtd"><svg t="1743759057310" class="icon" viewBox="0 0 1024 1024" version="1.1" xmlns="http://www.w3.org/2000/svg" p-id="49025" xmlns:xlink="http://www.w3.org/1999/xlink" width="200" height="200"><path d="M291.84 225.28h107.52L281.6 834.56H97.28l194.56-609.28z m419.84 0H614.4l133.12 604.16h184.32L711.68 225.28z m-291.84 0h174.08l128 604.16h-409.6l107.52-604.16z m25.6 179.2h133.12L563.2 271.36h-97.28l-20.48 133.12z m-25.6 184.32h189.44c0 5.12 0 5.12 0 0l-25.6-163.84H445.44l-25.6 163.84s0 5.12 0 0z m-30.72 204.8h245.76L614.4 609.28H419.84L389.12 793.6z m0 0" p-id="49026"></path></svg>