<?xml version="1.0" standalone="no"?><!DOCTYPE svg PUBLIC "-//W3C//DTD SVG 1.1//EN" "http://www.w3.org/Graphics/SVG/1.1/DTD/svg11.dtd"><svg t="1743759024163" class="icon" viewBox="0 0 1063 1024" version="1.1" xmlns="http://www.w3.org/2000/svg" p-id="46992" xmlns:xlink="http://www.w3.org/1999/xlink" width="207.6171875" height="200"><path d="M494.029194 66.166154L314.225296 108.596513a19.692308 19.692308 0 0 0-13.220102 10.60759l-69.763282 144.567794a19.692308 19.692308 0 0 0 4.397949 23.066257l328.467692 302.066872a19.692308 19.692308 0 0 0 17.053538 4.844307l282.886564-54.521436a19.692308 19.692308 0 0 0 15.097436-25.140512L819.753091 321.194667a19.692308 19.692308 0 0 0-6.524718-9.58359L510.833296 69.947077a19.692308 19.692308 0 0 0-16.804102-3.780923z m-0.301949 40.526769L783.913091 338.589538l51.134359 166.098052-251.588923 48.495589-310.390154-285.459692 59.339488-122.945641 161.345641-38.084923z" fill="#262626" p-id="46993"></path><path d="M295.044989 118.495179a19.692308 19.692308 0 0 1 26.138256-3.597128l1.614769 1.220923 290.395898 244.539077a19.692308 19.692308 0 0 1-23.77518 31.350154l-1.601641-1.220923-290.395897-244.539077a19.692308 19.692308 0 0 1-2.363077-27.753026z" fill="#262626" p-id="46994"></path><path d="M795.347758 310.560821a19.692308 19.692308 0 0 1 9.517949 38.163692l-1.837949 0.459487-183.256615 36.352-30.391795 191.947487a19.692308 19.692308 0 0 1-20.637539 16.580923l-1.890461-0.210051a19.692308 19.692308 0 0 1-16.580923-20.637538l0.210051-1.890462 32.531692-205.495795a19.692308 19.692308 0 0 1 13.784616-15.780102l1.837948-0.459488 196.713026-39.030153zM226.174425 432.941949a19.692308 19.692308 0 0 1 10.594461 37.888l-1.837949 0.512-133.382564 30.418051-58.525538 142.375385 287.638974 275.823589 274.668308-52.381538-53.011692-160.689231A19.692308 19.692308 0 0 1 563.096681 682.666667l1.772308-0.669539a19.692308 19.692308 0 0 1 24.195282 10.765128l0.669538 1.75918 60.04841 182.022564a19.692308 19.692308 0 0 1-13.206974 25.074872l-1.811692 0.433231-306.674872 58.486153a19.692308 19.692308 0 0 1-15.72759-3.741538l-1.601641-1.378462L6.093194 663.276308a19.692308 19.692308 0 0 1-5.251282-19.797334l0.65641-1.903589 67.518359-164.233847a19.692308 19.692308 0 0 1 11.986051-11.198359l1.837949-0.512 143.333744-32.68923z" fill="#262626" p-id="46995"></path><path d="M66.53545 469.188923a19.692308 19.692308 0 0 1 26.308923-2.100513l1.536 1.312821 275.101539 259.807179a19.692308 19.692308 0 0 1-25.508103 29.932308l-1.536-1.299692L67.336271 497.033846a19.692308 19.692308 0 0 1-0.787693-27.844923z" fill="#262626" p-id="46996"></path><path d="M567.113912 677.192205a19.692308 19.692308 0 0 1 7.496205 38.610051l-1.864205 0.36759-182.285128 26.387692-45.948718 188.048411a19.692308 19.692308 0 0 1-21.924103 14.821743l-1.864205-0.367589a19.692308 19.692308 0 0 1-14.834872-21.937231l0.380718-1.864205 49.099487-200.953436a19.692308 19.692308 0 0 1 14.493539-14.467282l1.811692-0.354462 195.43959-28.291282zM987.675963 601.035487l-169.301333 37.809231a19.692308 19.692308 0 0 0-15.254975 16.817231l-23.486359 191.448615a19.692308 19.692308 0 0 0 23.341949 21.72718l244.539077-47.957334a19.692308 19.692308 0 0 0 15.136821-24.72041L1010.899758 614.859487a19.692308 19.692308 0 0 0-23.223795-13.824z" fill="#262626" p-id="46997"></path><path d="M978.11863 643.518359l40.776205 142.834872-196.870564 38.596923 18.484513-150.711795z" fill="#FA541C" p-id="46998"></path></svg>