<?xml version="1.0" standalone="no"?><!DOCTYPE svg PUBLIC "-//W3C//DTD SVG 1.1//EN" "http://www.w3.org/Graphics/SVG/1.1/DTD/svg11.dtd"><svg t="1743758343674" class="icon" viewBox="0 0 1126 1024" version="1.1" xmlns="http://www.w3.org/2000/svg" p-id="1738" xmlns:xlink="http://www.w3.org/1999/xlink" width="219.921875" height="200"><path d="M809.174825 1.176424c-19.436563 0-35.292707 16.367632-35.292707 36.315684H351.904096c0-19.948052-15.856144-36.315684-35.292707-36.315684-19.436563 0-35.292707 16.367632-35.292708 36.315684v109.97003s-105.366633 109.458541-281.318681 36.315684c45.522478 47.568432 95.136863 90.533467 148.331668 129.406594 16.367632 11.252747 36.315684 16.879121 56.263737 16.87912h716.595404c19.948052 0 39.384615-5.626374 56.263736-16.87912 52.683317-38.873127 102.297702-81.838162 148.331669-129.406594-175.952048 73.142857-281.83017-36.315684-281.83017-36.315684V37.492108c0-19.948052-15.344655-36.315684-34.781219-36.315684z m175.594006 877.04935c0-20.45954-15.856144-36.827173-35.292707-36.827173V476.195804c0-40.407592-31.200799-73.142857-70.073926-73.142857H246.179421c-38.873127 0-70.073926 32.735265-70.073926 73.142857v365.202797c-19.436563 0-35.292707 16.367632-35.292708 36.827173h-35.292707v145.774226h914.541458v-145.774226h-35.292707z m-457.066134-200.963836c0-50.637363-39.384615-91.556444-87.976024-91.556443s-87.976024 40.919081-87.976024 91.556443v273.646354h175.952048v-273.646354z m246.179421 0c0-50.637363-39.384615-91.556444-87.976024-91.556443s-87.976024 40.919081-87.976024 91.556443v273.646354h175.952048v-273.646354z" fill="#912D17" p-id="1739"></path></svg>