<?xml version="1.0" standalone="no"?><!DOCTYPE svg PUBLIC "-//W3C//DTD SVG 1.1//EN" "http://www.w3.org/Graphics/SVG/1.1/DTD/svg11.dtd"><svg t="1743758757537" class="icon" viewBox="0 0 1024 1024" version="1.1" xmlns="http://www.w3.org/2000/svg" p-id="24415" xmlns:xlink="http://www.w3.org/1999/xlink" width="200" height="200"><path d="M981.461333 981.461333h-21.333333v-106.666666a21.333333 21.333333 0 0 0-42.666667 0v106.666666h-42.666666v-64a21.333333 21.333333 0 0 0-42.666667 0v64h-85.333333v-149.333333c0-6.272-1.194667-12.202667-2.858667-17.92-0.341333-1.109333-0.64-2.261333-1.066667-3.370667a62.122667 62.122667 0 0 0-8.405333-16.085333 64.341333 64.341333 0 0 0-13.098667-13.269333l-0.256-0.213334a63.488 63.488 0 0 0-17.024-9.130666 63.274667 63.274667 0 0 0-21.333333-3.925334h-42.666667a21.333333 21.333333 0 0 1 0-42.666666h42.666667c7.296 0 14.421333 0.768 21.333333 2.176v-108.928c0-6.272-1.194667-12.202667-2.858666-17.92-0.341333-1.109333-0.64-2.261333-1.066667-3.370667a62.122667 62.122667 0 0 0-8.405333-16.085333 64.341333 64.341333 0 0 0-13.098667-13.269334l-0.256-0.213333a63.488 63.488 0 0 0-17.024-9.130667 63.274667 63.274667 0 0 0-21.333333-3.925333h-42.666667a21.333333 21.333333 0 0 1 0-42.666667h42.666667c7.296 0 14.421333 0.768 21.333333 2.176v-66.261333c0-6.4-1.194667-12.458667-2.944-18.218667l-0.768-2.517333a64.512 64.512 0 0 0-38.912-38.656v-0.682667a63.274667 63.274667 0 0 0-21.333333-3.925333 21.333333 21.333333 0 0 1 0-42.666667c7.296 0 14.421333 0.768 21.333333 2.176V277.461333a64 64 0 0 0-47.829333-61.696l-37.461334-112.469333V21.461333a21.333333 21.333333 0 0 0-42.666666 0v81.834667l-37.504 112.469333a64 64 0 0 0-47.829334 61.696v23.509334c6.912-1.408 14.037333-2.176 21.333334-2.176a21.333333 21.333333 0 0 1 0 42.666666c-7.509333 0-14.634667 1.536-21.333334 3.925334a64.810667 64.810667 0 0 0-30.72 22.997333 65.024 65.024 0 0 0-9.130666 19.072c-1.706667 5.717333-2.858667 11.648-2.858667 17.92v66.176c6.912-1.408 14.037333-2.176 21.333333-2.176h42.666667a21.333333 21.333333 0 0 1 0 42.666667h-42.666667c-7.509333 0-14.634667 1.536-21.333333 3.925333a64.810667 64.810667 0 0 0-17.024 9.130667l-0.256 0.213333a65.450667 65.450667 0 0 0-13.44 13.653333 65.024 65.024 0 0 0-9.130667 19.072c-1.706667 5.717333-2.858667 11.648-2.858666 17.92v108.842667c6.912-1.408 14.037333-2.176 21.333333-2.176h42.666667a21.333333 21.333333 0 0 1 0 42.666667h-42.666667c-7.509333 0-14.634667 1.536-21.333333 3.925333a64.810667 64.810667 0 0 0-17.024 9.130667l-0.256 0.213333a65.450667 65.450667 0 0 0-13.44 13.653333 65.024 65.024 0 0 0-9.130667 19.072c-1.706667 5.717333-2.858667 11.648-2.858667 17.92v192h-85.333333v-64a21.333333 21.333333 0 0 0-42.666667 0v64h-42.666666v-106.666666a21.333333 21.333333 0 0 0-42.666667 0v106.666666H42.666667a21.333333 21.333333 0 0 0 0 42.666667h938.666666c11.776 0 21.333333-9.557333 21.333334-21.333333s-9.429333-21.077333-21.205334-21.077334zM496.768 305.152a22.016 22.016 0 0 1 30.293333-0.426667c4.309333 4.693333 6.4 9.813333 6.4 15.36s-2.133333 10.666667-6.016 14.933334a21.333333 21.333333 0 0 1-30.677333-29.866667z m-5.973333 164.309333h42.666666a21.333333 21.333333 0 0 1 0 42.666667h-42.666666a21.333333 21.333333 0 0 1 0-42.666667z m-42.666667 170.666667h128a21.333333 21.333333 0 0 1 0 42.666667h-128a21.333333 21.333333 0 0 1 0-42.666667z m149.333333 256h-170.666666a21.333333 21.333333 0 0 1 0-42.666667h170.666666a21.333333 21.333333 0 0 1 0 42.666667z" p-id="24416"></path></svg>