<?xml version="1.0" standalone="no"?><!DOCTYPE svg PUBLIC "-//W3C//DTD SVG 1.1//EN" "http://www.w3.org/Graphics/SVG/1.1/DTD/svg11.dtd"><svg t="1743759129860" class="icon" viewBox="0 0 1024 1024" version="1.1" xmlns="http://www.w3.org/2000/svg" p-id="51143" xmlns:xlink="http://www.w3.org/1999/xlink" width="200" height="200"><path d="M153.6 176.0256V153.6h716.8V332.8h-89.6v89.6H870.4V601.6h-89.6v89.6H870.4V870.4H153.6v-179.2h89.6v-89.6H153.6V422.4h89.6V332.8H153.6V175.9744zM288 332.8v89.6h201.6256V332.8H287.9488z m246.4256 0v89.6h201.5744V332.8h-201.6256z m-246.4256 268.8v89.6h201.6256v-89.6H287.9488z m246.4256 0v89.6h201.5744v-89.6h-201.6256zM198.4 198.4v89.6h156.8256v-89.6H198.3488z m201.6256 0v89.6h224v-89.6H399.9232z m268.8 0v89.6h156.7744v-89.6h-156.8256z m-470.4256 268.8v89.6h156.8256v-89.6H198.3488z m201.6256 0v89.6h224v-89.6H399.9232z m268.8 0v89.6h156.7744v-89.6h-156.8256z m-470.4256 268.8v89.6h156.8256v-89.6H198.3488z m201.6256 0v89.6h224v-89.6H399.9232z m268.8 0v89.6h156.7744v-89.6h-156.8256z" p-id="51144"></path></svg>