<?xml version="1.0" standalone="no"?><!DOCTYPE svg PUBLIC "-//W3C//DTD SVG 1.1//EN" "http://www.w3.org/Graphics/SVG/1.1/DTD/svg11.dtd"><svg t="1743758793085" class="icon" viewBox="0 0 1095 1024" version="1.1" xmlns="http://www.w3.org/2000/svg" p-id="25603" xmlns:xlink="http://www.w3.org/1999/xlink" width="213.8671875" height="200"><path d="M541.696 162.506419m-72.227721 0a72.227721 72.227721 0 1 0 144.455442 0 72.227721 72.227721 0 1 0-144.455442 0Z" fill="#FBB540" p-id="25604"></path><path d="M451.417302 920.885581h36.101954v72.227721h-36.101954zM668.100465 920.885581h36.101954v72.227721h-36.101954z" fill="#B9B9B9" p-id="25605"></path><path d="M397.240558 848.65786m36.101954 0l288.934697 0q36.101953 0 36.101954 36.101954l0 0.023814q0 36.101953-36.101954 36.101953l-288.934697 0q-36.101953 0-36.101954-36.101953l0-0.023814q0-36.101953 36.101954-36.101954Z" fill="#8F563B" p-id="25606"></path><path d="M469.468279 776.43014h36.101954v72.22772h-36.101954zM650.049488 776.43014h36.101954v72.22772h-36.101954z" fill="#B9B9B9" p-id="25607"></path><path d="M469.468279 776.43014h36.101954v36.101953h-36.101954zM650.049488 776.43014h36.101954v36.101953h-36.101954z" fill="#A8A8A8" p-id="25608"></path><path d="M18.050977 288.910884m90.278697 0l0 0q90.278698 0 90.278698 90.278697l0 198.632186q0 90.278698-90.278698 90.278698l0 0q-90.278698 0-90.278697-90.278698l0-198.632186q0-90.278698 90.278697-90.278697Z" fill="#A8D268" p-id="25609"></path><path d="M180.557395 451.417302m90.278698 0l0 0q90.278698 0 90.278698 90.278698l0 126.404465q0 90.278698-90.278698 90.278698l0 0q-90.278698 0-90.278698-90.278698l0-126.404465q0-90.278698 90.278698-90.278698Z" fill="#FD9226" p-id="25610"></path><path d="M325.012837 72.227721h-18.050977a72.227721 72.227721 0 0 0-144.455441 0h-18.050977a54.176744 54.176744 0 0 0 0 108.353488h180.557395a54.176744 54.176744 0 1 0 0-108.353488z" fill="#DBDBDB" p-id="25611"></path><path d="M433.366326 144.455442h-18.050977a72.227721 72.227721 0 1 0-144.455442 0h-18.074791a54.176744 54.176744 0 0 0 0 108.353488h180.58121a54.176744 54.176744 0 1 0 0-108.353488zM830.630698 288.910884h-18.098605a72.227721 72.227721 0 0 0-144.431628 0h-18.050977a54.176744 54.176744 0 1 0 0 108.353488h180.557396a54.176744 54.176744 0 1 0 0-108.353488z" fill="#EBEBEB" p-id="25612"></path><path d="M812.555907 306.96186m126.404465 0l-0.023814 0q126.404465 0 126.404465 126.404466l0 234.734139q0 126.404465-126.404465 126.404465l0.023814 0q-126.404465 0-126.404465-126.404465l0-234.734139q0-126.404465 126.404465-126.404466Z" fill="#B2E560" p-id="25613"></path><path d="M1023.952372 608.637023l-25.552372-25.528558-41.388651 41.412465V379.189581H920.885581v118.926884l-41.388651-41.412465-25.528558 25.528558 66.917209 66.941023v443.939721h36.125768V675.60186z" fill="#9A826A" p-id="25614"></path><path d="M334.752744 647.191814L315.296744 616.781395l-27.338418 17.52707v-110.663442h-36.125768v37.864186l-25.123721-16.765023-20.051349 30.029395 45.17507 30.124652v388.215069h36.125768V677.173581z" fill="#A45E14" p-id="25615"></path><path d="M172.246326 413.862698l-19.479814-30.410419-26.362047 16.907907v-39.221581H90.254884v146.836837L64.202419 490.567442l-20.051349 30.053209 46.127628 30.72v441.772651h36.125767v-549.864186z" fill="#985713" p-id="25616"></path><path d="M433.366326 704.202419m36.101953 0l216.706977 0q36.101953 0 36.101953 36.101953l0 0.023814q0 36.101953-36.101953 36.101954l-216.706977 0q-36.101953 0-36.101953-36.101954l0-0.023814q0-36.101953 36.101953-36.101953Z" fill="#8F563B" p-id="25617"></path><path d="M451.417302 920.885581h36.101954v23.813954h-36.101954zM668.100465 920.885581h36.101954v23.813954h-36.101954z" fill="#A8A8A8" p-id="25618"></path><path d="M0 975.062326h1083.415814v36.101953H0z" fill="#C1C1C1" p-id="25619"></path></svg>