<?xml version="1.0" standalone="no"?><!DOCTYPE svg PUBLIC "-//W3C//DTD SVG 1.1//EN" "http://www.w3.org/Graphics/SVG/1.1/DTD/svg11.dtd"><svg t="1743758827078" class="icon" viewBox="0 0 1024 1024" version="1.1" xmlns="http://www.w3.org/2000/svg" p-id="26692" xmlns:xlink="http://www.w3.org/1999/xlink" width="200" height="200"><path d="M735.8 441.191H304.883m429.747 3.633H301.21V279.922h433.418v164.902zM693.516 140.45H347.168m346.348 0H347.168m29.844 142.285c-17.051 0-24.63 12.735-24.63 40.508v78.692h49.259v-78.692c0-27.774-7.579-40.508-24.63-40.508z m67.949 0c-17.012 0-24.629 12.735-24.629 40.508v78.692h49.258v-78.692c0-27.774-7.578-40.508-24.63-40.508z m67.93 0c-17.051 0-24.63 12.735-24.63 40.508v78.692h49.259v-78.692c0-27.774-7.56-40.508-24.63-40.508z m67.91 0c-17.051 0-24.63 12.735-24.63 40.508v78.692h49.259v-78.692c0-27.774-7.578-40.508-24.63-40.508z m67.93 0c-17.051 0-24.63 12.735-24.63 40.508v78.692H673.36v-78.692c0-27.774-7.597-40.508-24.629-40.508z m112.246-51.582c-44.864-0.605-68.79-80.43-68.301-90.214H344.59c0.488 9.726-23.457 89.59-68.3 90.214-50.157 0.684-67.325-51.21-67.325-51.21 3.496 96.933 91.27 99.98 91.27 99.98h436.874s87.774-3.047 91.27-99.98c-0.078 0.038-17.266 51.894-67.402 51.21z m64.628 644.727H202.734m621.172 5.254H197.5v-238.34h626.406v238.34zM764.473 441.19H263.887m500.586 0H263.887m43.144 205.664c-24.629 0-35.625 18.399-35.625 58.536v113.73h71.211v-113.73c0-40.137-10.957-58.536-35.586-58.536z m98.145 0c-24.63 0-35.586 18.399-35.586 58.536v113.73H440.8v-113.73c0-40.137-10.957-58.536-35.625-58.536z m98.203 0c-24.629 0-35.586 18.399-35.586 58.536v113.73h71.211v-113.73c-0.02-40.137-10.957-58.536-35.625-58.536z m98.183 0c-24.628 0-35.625 18.399-35.625 58.536v113.73h71.211v-113.73c-0.02-40.137-10.957-58.536-35.585-58.536z m98.184 0c-24.668 0-35.625 18.399-35.625 58.536v113.73h71.211v-113.73c-0.02-40.137-10.957-58.536-35.586-58.536z m162.227-74.53c-64.844-0.86-99.453-116.31-98.75-130.391H260.059c0.683 14.082-33.907 129.492-98.711 130.39-72.461 0.977-97.325-74.004-97.325-74.004 5.04 140.078 131.934 144.473 131.934 144.473H827.402s126.836-4.434 131.934-144.473c-0.04 0-24.922 74.98-97.363 74.004z" fill="" p-id="26693"></path></svg>