<?xml version="1.0" standalone="no"?><!DOCTYPE svg PUBLIC "-//W3C//DTD SVG 1.1//EN" "http://www.w3.org/Graphics/SVG/1.1/DTD/svg11.dtd"><svg t="1743758648055" class="icon" viewBox="0 0 1024 1024" version="1.1" xmlns="http://www.w3.org/2000/svg" p-id="18901" xmlns:xlink="http://www.w3.org/1999/xlink" width="200" height="200"><path d="M840.48 0l-54.656 168.32-80.384 25.92a37.76 37.76 0 0 1-9.056 3.488l-0.256 0.064a51.424 51.424 0 0 0-20.832 9.408l0.128-0.096a193.184 193.184 0 0 1-4.896 6.432v0.608l-75.68 291.328a73.216 73.216 0 0 0-26.048-4.704l-2.944 0.064h0.128c-37.248 2.144-81.632 31.328-103.936 29.184a810.24 810.24 0 0 0-92.32-27.904l-6.208-1.28c-27.552 0-94.304 30.24-108.128 29.184a668.288 668.288 0 0 0-103.616-28.448l-4.512-0.736a215.04 215.04 0 0 0-78.592 22.176l1.248-0.576v72.384c7.456 3.2 64.64-22.72 105.984-24.864s60.512 23.776 91.136 24.864 74.464-24.864 107.04-24.864 67.904 23.776 94.336 24.864c27.616 1.056 80.608-25.92 107.04-25.92h2.848l-14.624 56.288c-36.64 3.104-79.84 31.04-101.696 28.896a810.56 810.56 0 0 0-92.32-27.872l-6.208-1.28c-27.552 0-94.304 30.208-108.128 29.152a677.792 677.792 0 0 0-103.584-28.416l-4.544-0.736a215.04 215.04 0 0 0-78.592 22.176l1.248-0.576v72.384c7.456 3.2 64.64-22.72 105.984-24.864s60.512 23.744 91.136 24.864 74.464-24.864 107.04-24.864 67.904 23.744 94.336 24.864a312.256 312.256 0 0 0 78.176-20.48l-2.08 0.736-9.856 38.016-56.448 29.28-14.624 11.808h-1.504a815.456 815.456 0 0 0-92.256-27.904l-6.272-1.28c-27.616 0-94.336 30.24-108.16 29.184a668.288 668.288 0 0 0-103.616-28.448l-4.512-0.736a215.04 215.04 0 0 0-78.592 22.176l1.248-0.576v72.416c7.456 3.2 64.64-22.72 105.984-24.864s60.512 23.744 91.136 24.864 74.464-24.864 107.04-24.864c11.84 0.352 23.104 2.56 33.568 6.336l-0.736-0.224-64.48 52.224c-17.728 4.64-39.52 12.288-57.152 18.208l-35.104 1.12-9.632 2.784a375.104 375.104 0 0 0-90.976-25.12l-2.112-0.256a215.04 215.04 0 0 0-78.592 22.176l1.248-0.576v72.384a282.272 282.272 0 0 0 57.792-15.808l-1.92 0.672-8.32 43.232-42.72 28.48h879.328V0h-113.696z" p-id="18902"></path></svg>